# Blender v3.4.1 OBJ File: ''
# www.blender.org
mtllib cogWheel.mtl
o Cube
v 1.000000 1.000000 -1.000000
v 1.000000 -1.000000 -1.000000
v 1.000000 1.000000 1.000000
v 1.000000 -1.000000 1.000000
v -1.000000 1.000000 -1.000000
v -1.000000 -1.000000 -1.000000
v -1.000000 1.000000 1.000000
v -1.000000 -1.000000 1.000000
vt 0.625000 0.500000
vt 0.875000 0.500000
vt 0.875000 0.750000
vt 0.625000 0.750000
vt 0.375000 0.750000
vt 0.625000 1.000000
vt 0.375000 1.000000
vt 0.375000 0.000000
vt 0.625000 0.000000
vt 0.625000 0.250000
vt 0.375000 0.250000
vt 0.125000 0.500000
vt 0.375000 0.500000
vt 0.125000 0.750000
vn 0.0000 1.0000 0.0000
vn 0.0000 0.0000 1.0000
vn -1.0000 0.0000 0.0000
vn 0.0000 -1.0000 0.0000
vn 1.0000 0.0000 0.0000
vn 0.0000 0.0000 -1.0000
usemtl Material
s off
f 1/1/1 5/2/1 7/3/1 3/4/1
f 4/5/2 3/4/2 7/6/2 8/7/2
f 8/8/3 7/9/3 5/10/3 6/11/3
f 6/12/4 2/13/4 4/5/4 8/14/4
f 2/13/5 1/1/5 3/4/5 4/5/5
f 6/11/6 5/10/6 1/1/6 2/13/6
o cogWheel
v 2.400000 -16.000000 -2.400000
v -2.400000 -16.000000 -2.400000
v 2.400000 -5.794112 -2.400000
v 4.000000 -4.000000 -2.400000
v 13.010764 -9.616652 -2.400000
v 9.616652 -13.010764 -2.400000
v 5.794112 -2.400000 -2.400000
v 5.794112 2.400000 -2.400000
v -2.400000 -5.794112 -2.400000
v -4.000000 -4.000000 -2.400000
v -5.794112 -2.400000 -2.400000
v -4.000000 4.000000 -2.400000
v -9.616652 -13.010764 -2.400000
v -13.010764 -9.616652 -2.400000
v 16.000000 2.400000 -2.400000
v 16.000000 -2.400000 -2.400000
v 4.000000 4.000000 -2.400000
v 13.010764 9.616652 -2.400000
v 9.616652 13.010764 -2.400000
v 2.400000 5.794112 -2.400000
v -2.400000 5.794112 -2.400000
v 2.400000 16.000000 -2.400000
v -5.794112 2.400000 -2.400000
v -13.010764 9.616652 -2.400000
v -9.616652 13.010764 -2.400000
v -16.000000 -2.400000 -2.400000
v -16.000000 2.400000 -2.400000
v -2.400000 16.000000 -2.400000
v 16.000000 -2.400000 2.400000
v 16.000000 2.400000 2.400000
v 2.400000 16.000000 2.400000
v -2.400000 16.000000 2.400000
v 2.400000 5.794112 2.400000
v 4.000000 4.000000 2.400000
v 13.010764 9.616652 2.400000
v 9.616652 13.010764 2.400000
v 5.794112 2.400000 2.400000
v 5.794112 -2.400000 2.400000
v -2.400000 5.794112 2.400000
v -4.000000 4.000000 2.400000
v -5.794112 2.400000 2.400000
v -4.000000 -4.000000 2.400000
v -9.616652 13.010764 2.400000
v -13.010764 9.616652 2.400000
v 4.000000 -4.000000 2.400000
v 13.010764 -9.616652 2.400000
v 9.616652 -13.010764 2.400000
v 2.400000 -5.794112 2.400000
v -2.400000 -5.794112 2.400000
v 2.400000 -16.000000 2.400000
v -5.794112 -2.400000 2.400000
v -13.010764 -9.616652 2.400000
v -9.616652 -13.010764 2.400000
v -16.000000 2.400000 2.400000
v -16.000000 -2.400000 2.400000
v -2.400000 -16.000000 2.400000
v 4.000000 -4.000000 16.000000
v 4.000000 4.000000 16.000000
v 4.000000 4.000000 -16.000000
v 4.000000 -4.000000 -16.000000
v -4.000000 4.000000 16.000000
v -4.000000 -4.000000 16.000000
v -4.000000 -4.000000 -16.000000
v -4.000000 4.000000 -16.000000
vn 0.0000 0.0000 -1.0000
vn 1.0000 0.0000 0.0000
vn 0.0000 0.0000 1.0000
vn 0.0000 1.0000 0.0000
vn 0.0000 -1.0000 0.0000
vn 0.7071 -0.7071 0.0000
vn 0.7071 0.7071 0.0000
vn -0.7071 -0.7071 0.0000
vn -1.0000 0.0000 0.0000
vn -0.7071 0.7071 0.0000
usemtl None
s off
f 9//7 10//7 11//7
f 12//7 13//7 14//7
f 15//7 12//7 16//7
f 13//7 12//7 15//7
f 11//7 12//7 14//7
f 17//7 11//7 10//7
f 17//7 12//7 11//7
f 17//7 18//7 12//7
f 18//7 19//7 20//7
f 21//7 18//7 17//7
f 22//7 18//7 21//7
f 18//7 22//7 19//7
f 15//7 23//7 24//7
f 23//7 15//7 16//7
f 25//7 26//7 16//7
f 25//7 16//7 12//7
f 26//7 25//7 27//7
f 25//7 28//7 27//7
f 28//7 29//7 30//7
f 25//7 29//7 28//7
f 20//7 29//7 25//7
f 31//7 20//7 19//7
f 32//7 20//7 31//7
f 20//7 33//7 29//7
f 20//7 32//7 33//7
f 34//7 31//7 19//7
f 31//7 34//7 35//7
f 30//7 29//7 36//7
f 37//8 23//8 38//8
f 23//8 37//8 24//8
f 39//9 40//9 41//9
f 42//9 43//9 44//9
f 45//9 42//9 46//9
f 43//9 42//9 45//9
f 41//9 42//9 44//9
f 47//9 41//9 40//9
f 47//9 42//9 41//9
f 47//9 48//9 42//9
f 48//9 49//9 50//9
f 51//9 48//9 47//9
f 52//9 48//9 51//9
f 48//9 52//9 49//9
f 45//9 37//9 38//9
f 37//9 45//9 46//9
f 53//9 54//9 46//9
f 53//9 46//9 42//9
f 54//9 53//9 55//9
f 53//9 56//9 55//9
f 56//9 57//9 58//9
f 53//9 57//9 56//9
f 50//9 57//9 53//9
f 59//9 50//9 49//9
f 60//9 50//9 59//9
f 50//9 61//9 57//9
f 50//9 60//9 61//9
f 62//9 59//9 49//9
f 59//9 62//9 63//9
f 58//9 57//9 64//9
f 23//10 45//10 38//10
f 45//10 23//10 16//10
f 15//11 37//11 46//11
f 37//11 15//11 24//11
f 34//11 59//11 63//11
f 59//11 34//11 19//11
f 55//12 13//12 54//12
f 13//12 55//12 14//12
f 13//13 46//13 54//13
f 46//13 13//13 15//13
f 14//14 56//14 11//14
f 56//14 14//14 55//14
f 10//11 58//11 64//11
f 58//11 10//11 9//11
f 10//15 57//15 17//15
f 57//15 10//15 64//15
f 58//8 11//8 56//8
f 11//8 58//8 9//8
f 21//14 60//14 22//14
f 60//14 21//14 61//14
f 19//16 60//16 59//16
f 60//16 19//16 22//16
f 61//12 17//12 57//12
f 17//12 61//12 21//12
f 34//15 62//15 35//15
f 62//15 34//15 63//15
f 31//10 62//10 49//10
f 62//10 31//10 35//10
f 32//16 51//16 33//16
f 51//16 32//16 52//16
f 47//13 33//13 51//13
f 33//13 47//13 29//13
f 32//14 49//14 52//14
f 49//14 32//14 31//14
f 30//10 40//10 39//10
f 40//10 30//10 36//10
f 29//15 40//15 36//15
f 40//15 29//15 47//15
f 41//8 30//8 39//8
f 30//8 41//8 28//8
f 43//13 27//13 44//13
f 27//13 43//13 26//13
f 28//16 44//16 27//16
f 44//16 28//16 41//16
f 16//12 43//12 45//12
f 43//12 16//12 26//12
f 65//8 42//8 66//8
f 42//8 65//8 53//8
f 12//8 67//8 25//8
f 67//8 12//8 68//8
f 69//9 65//9 66//9
f 65//9 69//9 70//9
f 71//7 67//7 68//7
f 67//7 71//7 72//7
f 50//15 69//15 48//15
f 69//15 50//15 70//15
f 71//15 20//15 72//15
f 20//15 71//15 18//15
f 42//10 69//10 66//10
f 69//10 42//10 48//10
f 67//10 20//10 25//10
f 20//10 67//10 72//10
f 50//11 65//11 70//11
f 65//11 50//11 53//11
f 71//11 12//11 18//11
f 12//11 71//11 68//11
