# Blender v3.4.1 OBJ File: ''
# www.blender.org
mtllib speedometer_needle.mtl
o Cube
v 1.000000 1.000000 -1.000000
v 1.000000 -1.000000 -1.000000
v 1.000000 1.000000 1.000000
v 1.000000 -1.000000 1.000000
v -1.000000 1.000000 -1.000000
v -1.000000 -1.000000 -1.000000
v -1.000000 1.000000 1.000000
v -1.000000 -1.000000 1.000000
vt 0.625000 0.500000
vt 0.875000 0.500000
vt 0.875000 0.750000
vt 0.625000 0.750000
vt 0.375000 0.750000
vt 0.625000 1.000000
vt 0.375000 1.000000
vt 0.375000 0.000000
vt 0.625000 0.000000
vt 0.625000 0.250000
vt 0.375000 0.250000
vt 0.125000 0.500000
vt 0.375000 0.500000
vt 0.125000 0.750000
vn 0.0000 1.0000 0.0000
vn 0.0000 0.0000 1.0000
vn -1.0000 0.0000 0.0000
vn 0.0000 -1.0000 0.0000
vn 1.0000 0.0000 0.0000
vn 0.0000 0.0000 -1.0000
usemtl Material
s off
f 1/1/1 5/2/1 7/3/1 3/4/1
f 4/5/2 3/4/2 7/6/2 8/7/2
f 8/8/3 7/9/3 5/10/3 6/11/3
f 6/12/4 2/13/4 4/5/4 8/14/4
f 2/13/5 1/1/5 3/4/5 4/5/5
f 6/11/6 5/10/6 1/1/6 2/13/6
o speedometer_needle
v 0.799999 -0.400000 6.400000
v 0.799999 0.400000 1.600001
v 0.799999 0.400000 6.400000
v 0.799999 -0.400000 1.600001
v -0.799999 0.400000 6.400000
v -0.799999 -0.400000 6.400000
v -1.200000 -0.400000 -1.600000
v 1.200000 0.400000 -1.600000
v 1.200000 -0.400000 -1.600000
v -1.200000 0.400000 -1.600000
v -0.799999 -0.400000 1.600001
v -0.799999 0.400000 1.600001
v 1.200000 0.400000 1.600001
v -1.200000 0.400000 1.600001
v -1.200000 -0.400000 1.600001
v 1.200000 -0.400000 1.600001
vn 1.0000 0.0000 0.0000
vn 0.0000 0.0000 1.0000
vn 0.0000 0.0000 -1.0000
vn -1.0000 0.0000 0.0000
vn 0.0000 1.0000 0.0000
vn 0.0000 -1.0000 0.0000
usemtl None
s off
f 9//7 10//7 11//7
f 10//7 9//7 12//7
f 13//8 9//8 11//8
f 9//8 13//8 14//8
f 15//9 16//9 17//9
f 16//9 15//9 18//9
f 19//10 13//10 20//10
f 13//10 19//10 14//10
f 16//11 10//11 21//11
f 10//11 16//11 20//11
f 18//11 20//11 16//11
f 20//11 18//11 22//11
f 10//11 13//11 11//11
f 13//11 10//11 20//11
f 15//12 19//12 23//12
f 19//12 15//12 12//12
f 17//12 12//12 15//12
f 12//12 17//12 24//12
f 19//12 9//12 14//12
f 9//12 19//12 12//12
f 24//7 16//7 21//7
f 16//7 24//7 17//7
f 22//8 19//8 20//8
f 19//8 22//8 23//8
f 10//8 24//8 21//8
f 24//8 10//8 12//8
f 15//10 22//10 18//10
f 22//10 15//10 23//10
