# Blender 4.0.2
# www.blender.org
o Cube
v 1.000000 1.000000 -1.000000
v 1.000000 -1.000000 -1.000000
v 1.000000 1.000000 1.000000
v 1.000000 -1.000000 1.000000
v -1.000000 1.000000 -1.000000
v -1.000000 -1.000000 -1.000000
v -1.000000 1.000000 1.000000
v -1.000000 -1.000000 1.000000
vn -0.0000 1.0000 -0.0000
vn -0.0000 -0.0000 1.0000
vn -1.0000 -0.0000 -0.0000
vn -0.0000 -1.0000 -0.0000
vn 1.0000 -0.0000 -0.0000
vn -0.0000 -0.0000 -1.0000
vt 0.625000 0.500000
vt 0.875000 0.500000
vt 0.875000 0.750000
vt 0.625000 0.750000
vt 0.375000 0.750000
vt 0.625000 1.000000
vt 0.375000 1.000000
vt 0.375000 0.000000
vt 0.625000 0.000000
vt 0.625000 0.250000
vt 0.375000 0.250000
vt 0.125000 0.500000
vt 0.375000 0.500000
vt 0.125000 0.750000
s 0
f 1/1/1 5/2/1 7/3/1 3/4/1
f 4/5/2 3/4/2 7/6/2 8/7/2
f 8/8/3 7/9/3 5/10/3 6/11/3
f 6/12/4 2/13/4 4/5/4 8/14/4
f 2/13/5 1/1/5 3/4/5 4/5/5
f 6/11/6 5/10/6 1/1/6 2/13/6
o mechanicalBelt_gear
v 11.200000 2.400000 -2.400000
v 11.200000 -2.400000 -2.400000
v 5.794110 2.400000 -2.400000
v 4.000000 4.000000 -2.400000
v 6.222540 9.616650 -2.400000
v 9.616650 6.222540 -2.400000
v 2.400000 5.794110 -2.400000
v -2.400000 5.794110 -2.400000
v 5.794110 -2.400000 -2.400000
v 4.000000 -4.000000 -2.400000
v 2.400000 -5.794110 -2.400000
v -4.000000 -4.000000 -2.400000
v 9.616650 -6.222540 -2.400000
v 6.222540 -9.616650 -2.400000
v -2.400000 11.200000 -2.400000
v 2.400000 11.200000 -2.400000
v -4.000000 4.000000 -2.400000
v -6.222540 9.616650 -2.400000
v -9.616650 6.222540 -2.400000
v -5.794110 2.400000 -2.400000
v -5.794110 -2.400000 -2.400000
v -11.200000 2.400000 -2.400000
v -2.400000 -5.794110 -2.400000
v -6.222540 -9.616650 -2.400000
v -9.616650 -6.222540 -2.400000
v 2.400000 -11.200000 -2.400000
v -2.400000 -11.200000 -2.400000
v -11.200000 -2.400000 -2.400000
v 11.200000 2.400000 2.400000
v 11.200000 -2.400000 2.400000
v -11.200000 2.400000 2.400000
v -11.200000 -2.400000 2.400000
v -5.794110 2.400000 2.400000
v -4.000000 4.000000 2.400000
v -6.222540 9.616650 2.400000
v -9.616650 6.222540 2.400000
v -2.400000 5.794110 2.400000
v 2.400000 5.794110 2.400000
v -5.794110 -2.400000 2.400000
v -4.000000 -4.000000 2.400000
v -2.400000 -5.794110 2.400000
v 4.000000 -4.000000 2.400000
v -9.616650 -6.222540 2.400000
v -6.222540 -9.616650 2.400000
v 2.400000 11.200000 2.400000
v -2.400000 11.200000 2.400000
v 4.000000 4.000000 2.400000
v 6.222540 9.616650 2.400000
v 9.616650 6.222540 2.400000
v 5.794110 2.400000 2.400000
v 5.794110 -2.400000 2.400000
v 2.400000 -5.794110 2.400000
v 6.222540 -9.616650 2.400000
v 9.616650 -6.222540 2.400000
v -2.400000 -11.200000 2.400000
v 2.400000 -11.200000 2.400000
v 4.000000 4.000000 16.000000
v 4.000000 -4.000000 16.000000
v 4.000000 -4.000000 -16.000000
v 4.000000 4.000000 -16.000000
v -4.000000 -4.000000 16.000000
v -4.000000 4.000000 16.000000
v -4.000000 4.000000 -16.000000
v -4.000000 -4.000000 -16.000000
vn -0.0000 -0.0000 -1.0000
vn 1.0000 -0.0000 -0.0000
vn -0.0000 -0.0000 1.0000
vn -0.0000 1.0000 -0.0000
vn -0.0000 -1.0000 -0.0000
vn 0.7071 -0.7071 -0.0000
vn 0.7071 0.7071 -0.0000
vn -0.7071 -0.7071 -0.0000
vn -1.0000 -0.0000 -0.0000
vn -0.7071 0.7071 -0.0000
s 0
f 9//7 10//7 11//7
f 12//7 13//7 14//7
f 15//7 12//7 16//7
f 13//7 12//7 15//7
f 11//7 12//7 14//7
f 17//7 11//7 10//7
f 17//7 12//7 11//7
f 17//7 18//7 12//7
f 18//7 19//7 20//7
f 21//7 18//7 17//7
f 22//7 18//7 21//7
f 18//7 22//7 19//7
f 15//7 23//7 24//7
f 23//7 15//7 16//7
f 25//7 26//7 16//7
f 25//7 16//7 12//7
f 26//7 25//7 27//7
f 25//7 28//7 27//7
f 28//7 29//7 30//7
f 25//7 29//7 28//7
f 20//7 29//7 25//7
f 31//7 20//7 19//7
f 32//7 20//7 31//7
f 20//7 33//7 29//7
f 20//7 32//7 33//7
f 34//7 31//7 19//7
f 31//7 34//7 35//7
f 30//7 29//7 36//7
f 37//8 10//8 9//8
f 10//8 37//8 38//8
f 39//9 40//9 41//9
f 42//9 43//9 44//9
f 45//9 42//9 46//9
f 43//9 42//9 45//9
f 41//9 42//9 44//9
f 47//9 41//9 40//9
f 47//9 42//9 41//9
f 47//9 48//9 42//9
f 48//9 49//9 50//9
f 51//9 48//9 47//9
f 52//9 48//9 51//9
f 48//9 52//9 49//9
f 45//9 53//9 54//9
f 53//9 45//9 46//9
f 55//9 56//9 46//9
f 55//9 46//9 42//9
f 56//9 55//9 57//9
f 55//9 58//9 57//9
f 58//9 59//9 37//9
f 55//9 59//9 58//9
f 50//9 59//9 55//9
f 60//9 50//9 49//9
f 61//9 50//9 60//9
f 50//9 62//9 59//9
f 50//9 61//9 62//9
f 63//9 60//9 49//9
f 60//9 63//9 64//9
f 37//9 59//9 38//9
f 11//10 37//10 9//10
f 37//10 11//10 58//10
f 30//10 41//10 28//10
f 41//10 30//10 39//10
f 59//11 10//11 38//11
f 10//11 59//11 17//11
f 62//12 22//12 21//12
f 22//12 62//12 61//12
f 59//13 21//13 17//13
f 21//13 59//13 62//13
f 61//14 19//14 22//14
f 19//14 61//14 60//14
f 63//11 34//11 64//11
f 34//11 63//11 35//11
f 63//15 31//15 35//15
f 31//15 63//15 49//15
f 60//8 34//8 19//8
f 34//8 60//8 64//8
f 52//14 33//14 32//14
f 33//14 52//14 51//14
f 51//16 29//16 33//16
f 29//16 51//16 47//16
f 49//12 32//12 31//12
f 32//12 49//12 52//12
f 40//15 30//15 36//15
f 30//15 40//15 39//15
f 40//11 29//11 47//11
f 29//11 40//11 36//11
f 44//16 26//16 27//16
f 26//16 44//16 43//16
f 43//13 16//13 26//13
f 16//13 43//13 45//13
f 41//14 27//14 28//14
f 27//14 41//14 44//14
f 23//10 53//10 24//10
f 53//10 23//10 54//10
f 45//15 23//15 16//15
f 23//15 45//15 54//15
f 53//8 15//8 24//8
f 15//8 53//8 46//8
f 56//13 14//13 13//13
f 14//13 56//13 57//13
f 46//16 13//16 15//16
f 13//16 46//16 56//16
f 57//12 11//12 14//12
f 11//12 57//12 58//12
f 65//8 50//8 55//8
f 50//8 65//8 66//8
f 12//8 67//8 68//8
f 67//8 12//8 18//8
f 69//9 65//9 70//9
f 65//9 69//9 66//9
f 67//7 71//7 68//7
f 71//7 67//7 72//7
f 69//15 42//15 48//15
f 42//15 69//15 70//15
f 20//15 71//15 72//15
f 71//15 20//15 25//15
f 42//10 65//10 55//10
f 65//10 42//10 70//10
f 71//10 12//10 68//10
f 12//10 71//10 25//10
f 69//11 50//11 66//11
f 50//11 69//11 48//11
f 20//11 67//11 18//11
f 67//11 20//11 72//11
