# Blender 4.0.2
# www.blender.org
o Cube
v 1.000000 1.000000 -1.000000
v 1.000000 -1.000000 -1.000000
v 1.000000 1.000000 1.000000
v 1.000000 -1.000000 1.000000
v -1.000000 1.000000 -1.000000
v -1.000000 -1.000000 -1.000000
v -1.000000 1.000000 1.000000
v -1.000000 -1.000000 1.000000
vn -0.0000 1.0000 -0.0000
vn -0.0000 -0.0000 1.0000
vn -1.0000 -0.0000 -0.0000
vn -0.0000 -1.0000 -0.0000
vn 1.0000 -0.0000 -0.0000
vn -0.0000 -0.0000 -1.0000
vt 0.625000 0.500000
vt 0.875000 0.500000
vt 0.875000 0.750000
vt 0.625000 0.750000
vt 0.375000 0.750000
vt 0.625000 1.000000
vt 0.375000 1.000000
vt 0.375000 0.000000
vt 0.625000 0.000000
vt 0.625000 0.250000
vt 0.375000 0.250000
vt 0.125000 0.500000
vt 0.375000 0.500000
vt 0.125000 0.750000
s 0
f 1/1/1 5/2/1 7/3/1 3/4/1
f 4/5/2 3/4/2 7/6/2 8/7/2
f 8/8/3 7/9/3 5/10/3 6/11/3
f 6/12/4 2/13/4 4/5/4 8/14/4
f 2/13/5 1/1/5 3/4/5 4/5/5
f 6/11/6 5/10/6 1/1/6 2/13/6
o mechanicalHarvester_base
v 16.000000 -1.848980 23.297199
v 16.000000 0.648911 2.400000
v 16.000000 5.756960 2.400000
v 16.000000 -6.359500 21.655500
v 16.000000 16.000000 -2.400000
v 16.000000 16.000000 2.400000
v 16.000000 -16.000000 -2.400000
v 16.000000 -16.000000 2.400000
v -16.000000 16.000000 -2.400000
v -16.000000 16.000000 2.400000
v -16.000000 -16.000000 2.400000
v -16.000000 -16.000000 -2.400000
v -16.000000 -1.848980 23.297199
v -16.000000 0.648911 2.400000
v -16.000000 -6.359500 21.655500
v -16.000000 5.756960 2.400000
v -11.200000 0.648911 2.400000
v 11.200000 0.648911 2.400000
v 11.200000 5.756960 2.400000
v -11.200000 5.756960 2.400000
v -11.200000 -6.359500 21.655500
v -11.200000 -1.848980 23.297199
v 11.200000 -6.359500 21.655500
v 11.200000 -1.848980 23.297199
vn 1.0000 -0.0000 -0.0000
vn -0.0000 1.0000 -0.0000
vn -0.0000 -1.0000 -0.0000
vn -1.0000 -0.0000 -0.0000
vn -0.0000 -0.0000 -1.0000
vn -0.0000 -0.0000 1.0000
vn -0.0000 -0.9397 -0.3420
vn -0.0000 0.9397 0.3420
vn -0.0000 -0.3420 0.9397
s 0
f 9//7 10//7 11//7
f 10//7 9//7 12//7
f 11//7 13//7 14//7
f 10//7 13//7 11//7
f 13//7 10//7 15//7
f 15//7 10//7 16//7
f 17//8 14//8 13//8
f 14//8 17//8 18//8
f 19//9 15//9 16//9
f 15//9 19//9 20//9
f 21//10 22//10 23//10
f 22//10 21//10 24//10
f 22//10 20//10 19//10
f 20//10 22//10 17//10
f 24//10 17//10 22//10
f 17//10 24//10 18//10
f 15//11 17//11 13//11
f 17//11 15//11 20//11
f 19//12 25//12 22//12
f 25//12 19//12 26//12
f 16//12 26//12 19//12
f 26//12 16//12 10//12
f 25//12 27//12 28//12
f 27//12 25//12 26//12
f 28//12 18//12 24//12
f 18//12 28//12 14//12
f 27//12 14//12 28//12
f 14//12 27//12 11//12
f 23//13 25//13 29//13
f 25//13 23//13 22//13
f 24//14 30//14 28//14
f 30//14 24//14 21//14
f 30//7 25//7 28//7
f 25//7 30//7 29//7
f 23//15 30//15 21//15
f 30//15 23//15 29//15
f 31//13 10//13 12//13
f 10//13 31//13 26//13
f 27//14 9//14 11//14
f 9//14 27//14 32//14
f 32//10 26//10 31//10
f 26//10 32//10 27//10
f 31//15 9//15 32//15
f 9//15 31//15 12//15
