# Blender 4.0.2
# www.blender.org
o Cube
v 1.000000 1.000000 -1.000000
v 1.000000 -1.000000 -1.000000
v 1.000000 1.000000 1.000000
v 1.000000 -1.000000 1.000000
v -1.000000 1.000000 -1.000000
v -1.000000 -1.000000 -1.000000
v -1.000000 1.000000 1.000000
v -1.000000 -1.000000 1.000000
vn -0.0000 1.0000 -0.0000
vn -0.0000 -0.0000 1.0000
vn -1.0000 -0.0000 -0.0000
vn -0.0000 -1.0000 -0.0000
vn 1.0000 -0.0000 -0.0000
vn -0.0000 -0.0000 -1.0000
vt 0.625000 0.500000
vt 0.875000 0.500000
vt 0.875000 0.750000
vt 0.625000 0.750000
vt 0.375000 0.750000
vt 0.625000 1.000000
vt 0.375000 1.000000
vt 0.375000 0.000000
vt 0.625000 0.000000
vt 0.625000 0.250000
vt 0.375000 0.250000
vt 0.125000 0.500000
vt 0.375000 0.500000
vt 0.125000 0.750000
s 0
f 1/1/1 5/2/1 7/3/1 3/4/1
f 4/5/2 3/4/2 7/6/2 8/7/2
f 8/8/3 7/9/3 5/10/3 6/11/3
f 6/12/4 2/13/4 4/5/4 8/14/4
f 2/13/5 1/1/5 3/4/5 4/5/5
f 6/11/6 5/10/6 1/1/6 2/13/6
o mechanicalSaw_saw
v 15.005900 1.000000 1.089960
v 15.802200 -1.000000 -1.882000
v 15.802200 1.000000 -1.882000
v 15.005900 -1.000000 1.089960
v 15.861300 -1.000000 1.319190
v 15.861300 1.000000 1.319190
v 13.409500 1.000000 6.822720
v 15.310200 -1.000000 4.373400
v 15.310200 1.000000 4.373400
v 13.409500 -1.000000 6.822720
v 14.117600 -1.000000 7.372260
v 14.117600 1.000000 7.372260
v 9.715290 -1.000000 11.488100
v 12.458700 1.000000 9.943890
v 9.715290 1.000000 11.488100
v 12.458700 -1.000000 9.943890
v 10.163600 1.000000 12.284500
v 10.163600 -1.000000 12.284500
v 4.501210 -1.000000 14.356300
v 7.680240 1.000000 13.990600
v 4.501210 1.000000 14.356300
v 7.680240 -1.000000 13.990600
v 7.681140 -1.000000 13.998400
v 7.681140 1.000000 13.998400
v 4.608430 1.000000 15.288300
v 4.608430 -1.000000 15.288300
v -1.417050 -1.000000 14.978500
v 1.655110 1.000000 15.874000
v -1.417050 1.000000 14.978500
v 1.655110 -1.000000 15.874000
v -1.688260 1.000000 15.909000
v -1.688260 -1.000000 15.909000
v 1.643920 -1.000000 15.912300
v 1.643920 1.000000 15.912300
v -7.113630 -1.000000 13.257500
v -4.628960 1.000000 15.274000
v -7.113630 1.000000 13.257500
v -4.628960 -1.000000 15.274000
v -7.705970 1.000000 13.987300
v -7.705970 -1.000000 13.987300
v -4.635830 -1.000000 15.282500
v -4.635830 1.000000 15.282500
v -10.204900 -1.000000 12.254400
v -11.697300 1.000000 9.462370
v -11.697300 -1.000000 9.462370
v -10.204900 1.000000 12.254400
v -12.504000 -1.000000 9.893540
v -12.504000 1.000000 9.893540
v -14.162000 -1.000000 7.295360
v -14.451100 1.000000 4.186960
v -14.451100 -1.000000 4.186960
v -14.162000 1.000000 7.295360
v -15.343800 -1.000000 4.269980
v -15.343800 1.000000 4.269980
v -15.873400 -1.000000 1.204210
v -14.944000 1.000000 -1.743470
v -14.944000 -1.000000 -1.743470
v -15.873400 1.000000 1.204210
v -15.788800 -1.000000 -2.009810
v -15.788800 1.000000 -2.009810
v -15.088200 -1.000000 -5.056730
v -13.099100 1.000000 -7.401140
v -13.099100 -1.000000 -7.401140
v -15.088200 1.000000 -5.056730
v -13.771600 -1.000000 -7.971660
v -13.771600 1.000000 -7.971660
v -9.204940 -1.000000 -11.901000
v -11.948300 1.000000 -10.510700
v -9.204940 1.000000 -11.901000
v -11.948300 -1.000000 -10.510700
v -9.604970 1.000000 -12.690300
v -9.604970 -1.000000 -12.690300
v -3.870710 -1.000000 -14.539000
v -6.959710 1.000000 -14.319600
v -3.870710 1.000000 -14.539000
v -6.959710 -1.000000 -14.319600
v -3.934110 1.000000 -15.431600
v -3.934110 -1.000000 -15.431600
v 2.069060 -1.000000 -14.902400
v -0.906029 1.000000 -15.912300
v 2.069060 1.000000 -14.902400
v -0.906029 -1.000000 -15.912300
v 2.362110 1.000000 -15.765800
v 2.362110 -1.000000 -15.765800
v 5.290790 1.000000 -15.057500
v 5.294020 -1.000000 -15.061200
v 5.294020 1.000000 -15.061200
v 5.290790 -1.000000 -15.057500
v 7.685140 -1.000000 -12.934500
v 7.685140 1.000000 -12.934500
v 8.305630 1.000000 -13.634300
v 8.305630 -1.000000 -13.634300
v 10.715000 -1.000000 -11.828400
v 10.747700 1.000000 -11.844100
v 10.715000 1.000000 -11.828400
v 10.747700 -1.000000 -11.844100
v 12.098900 1.000000 -8.943130
v 12.098900 -1.000000 -8.943130
v 12.969600 -1.000000 -9.360740
v 12.969600 1.000000 -9.360740
v 14.462900 -1.000000 -6.748770
v 14.477200 1.000000 -6.749470
v 14.462900 1.000000 -6.748770
v 14.477200 -1.000000 -6.749470
v 14.619900 1.000000 -3.552630
v 14.619900 -1.000000 -3.552630
v 15.561900 -1.000000 -3.598900
v 15.561900 1.000000 -3.598900
v 15.650400 1.000000 -3.326590
v 15.650400 -1.000000 -3.326590
v -8.000000 1.000000 -13.856400
v -8.000000 -1.000000 -13.856400
v 4.944270 1.000000 -15.216900
v 4.944270 -1.000000 -15.216900
v 15.650400 1.000000 3.326590
v 15.650400 -1.000000 3.326590
v -12.944300 -1.000000 -9.404560
v -12.944300 1.000000 -9.404560
v 10.706100 -1.000000 -11.890300
v 10.706100 1.000000 -11.890300
v 1.672450 1.000000 15.912300
v 1.672450 -1.000000 15.912300
v -8.000000 -1.000000 13.856400
v -8.000000 1.000000 13.856400
v -12.944300 -1.000000 9.404560
v -12.944300 1.000000 9.404560
v -15.650400 -1.000000 -3.326590
v -15.650400 1.000000 -3.326590
v -15.650400 1.000000 3.326590
v -15.650400 -1.000000 3.326590
v -1.672450 1.000000 -15.912300
v -1.672450 -1.000000 -15.912300
v 12.944300 -1.000000 9.404560
v 12.944300 1.000000 9.404560
v 8.000000 -1.000000 13.856400
v 8.000000 1.000000 13.856400
vn 0.9659 -0.0000 0.2588
vn 0.2588 -0.0000 -0.9659
vn 0.7900 -0.0000 0.6131
vn 0.6131 -0.0000 -0.7900
vn 0.4905 -0.0000 0.8714
vn 0.8714 -0.0000 -0.4905
vn 0.1143 -0.0000 0.9934
vn -0.9934 -0.0000 0.1145
vn -0.9934 -0.0000 0.1147
vn 0.9934 -0.0000 -0.1143
vn -0.2798 -0.0000 0.9600
vn 0.9601 -0.0000 0.2798
vn -0.9599 -0.0000 -0.2804
vn -0.6302 -0.0000 0.7765
vn 0.7764 -0.0000 0.6302
vn -0.7778 -0.0000 -0.6286
vn -0.7777 -0.0000 -0.6286
vn -0.8819 -0.0000 0.4714
vn 0.4714 -0.0000 0.8819
vn -0.9957 -0.0000 0.0926
vn 0.0926 -0.0000 0.9957
vn -0.9537 -0.0000 -0.3007
vn -0.3007 -0.0000 0.9537
vn -0.7625 -0.0000 -0.6470
vn -0.6469 -0.0000 0.7626
vn -0.4521 -0.0000 -0.8920
vn -0.8920 -0.0000 0.4521
vn -0.0708 -0.0000 -0.9975
vn -0.9975 -0.0000 0.0708
vn -0.9975 -0.0000 0.0709
vn 0.3214 -0.0000 -0.9469
vn -0.9469 -0.0000 -0.3214
vn 0.7533 -0.0000 0.6576
vn 0.6634 -0.0000 -0.7482
vn -0.7482 -0.0000 -0.6634
vn 0.4328 -0.0000 0.9015
vn 0.9016 -0.0000 -0.4325
vn -0.4325 -0.0000 -0.9017
vn 0.0489 -0.0000 0.9988
vn 0.9988 -0.0000 -0.0491
vn -0.0491 -0.0000 -0.9988
vn 0.9510 -0.0000 -0.3091
vn 0.9945 -0.0000 -0.1045
vn 0.8660 -0.0000 -0.5000
vn -0.4068 -0.0000 -0.9135
vn 0.4067 -0.0000 -0.9136
vn 0.9945 -0.0000 0.1045
vn -0.7431 -0.0000 -0.6691
vn -0.5878 -0.0000 -0.8090
vn 0.7431 -0.0000 -0.6691
vn -0.0000 -0.0000 1.0000
vn 0.9510 -0.0000 0.3091
vn -0.4067 -0.0000 0.9136
vn -0.8660 -0.0000 0.5000
vn -0.9510 -0.0000 -0.3090
vn -0.2079 -0.0000 0.9781
vn -0.9510 -0.0000 0.3091
vn -0.9945 -0.0000 -0.1045
vn -0.0000 -0.0000 -1.0000
vn 0.7432 -0.0000 0.6691
vn 0.2079 -0.0000 0.9782
vn 0.8660 -0.0000 0.5000
vn 0.2079 -0.0000 -0.9781
vn 0.5878 -0.0000 0.8090
vn 0.5878 -0.0000 -0.8090
vn -0.2079 -0.0000 -0.9782
vn -0.9945 -0.0000 0.1045
vn -0.0000 -1.0000 -0.0000
vn 0.4068 -0.0000 0.9135
vn -0.7431 -0.0000 0.6691
vn -0.0000 1.0000 -0.0000
vn -0.5878 -0.0000 0.8090
vn -0.8660 -0.0000 -0.5000
s 0
f 9//7 10//7 11//7
f 10//7 9//7 12//7
f 13//8 9//8 14//8
f 9//8 13//8 12//8
f 15//9 16//9 17//9
f 16//9 15//9 18//9
f 19//10 15//10 20//10
f 15//10 19//10 18//10
f 21//11 22//11 23//11
f 22//11 21//11 24//11
f 25//12 21//12 23//12
f 21//12 25//12 26//12
f 27//13 28//13 29//13
f 28//13 27//13 30//13
f 31//14 28//14 30//14
f 28//15 31//15 32//15
f 33//16 27//16 29//16
f 27//16 33//16 34//16
f 35//17 36//17 37//17
f 36//17 35//17 38//17
f 39//18 35//18 37//18
f 35//18 39//18 40//18
f 41//19 36//19 38//19
f 36//19 41//19 42//19
f 43//20 44//20 45//20
f 44//20 43//20 46//20
f 47//21 43//21 45//21
f 43//21 47//21 48//21
f 49//22 44//22 46//22
f 44//23 49//23 50//23
f 51//24 52//24 53//24
f 52//24 51//24 54//24
f 55//25 52//25 56//25
f 52//25 55//25 53//25
f 57//26 58//26 59//26
f 58//26 57//26 60//26
f 61//27 58//27 62//27
f 58//27 61//27 59//27
f 63//28 64//28 65//28
f 64//28 63//28 66//28
f 67//29 64//29 68//29
f 64//29 67//29 65//29
f 69//30 70//30 71//30
f 70//30 69//30 72//30
f 73//31 70//31 74//31
f 70//31 73//31 71//31
f 75//32 76//32 77//32
f 76//32 75//32 78//32
f 75//33 79//33 80//33
f 79//33 75//33 77//33
f 81//34 82//34 83//34
f 82//34 81//34 84//34
f 81//35 85//35 86//35
f 85//36 81//36 83//36
f 87//37 88//37 89//37
f 88//37 87//37 90//37
f 87//38 91//38 92//38
f 91//38 87//38 89//38
f 93//39 94//39 95//39
f 94//39 93//39 96//39
f 97//40 93//40 98//40
f 93//40 97//40 96//40
f 97//41 99//41 100//41
f 99//41 97//41 98//41
f 101//42 102//42 103//42
f 102//42 101//42 104//42
f 105//43 101//43 103//43
f 101//43 105//43 106//43
f 107//44 105//44 108//44
f 105//44 107//44 106//44
f 109//45 110//45 111//45
f 110//45 109//45 112//45
f 113//46 109//46 111//46
f 109//46 113//46 114//46
f 115//47 113//47 116//47
f 113//47 115//47 114//47
f 117//48 115//48 116//48
f 115//48 117//48 118//48
f 11//49 118//49 117//49
f 118//49 11//49 10//49
f 110//50 107//50 108//50
f 107//50 110//50 112//50
f 84//51 119//51 82//51
f 119//51 84//51 120//51
f 94//52 121//52 95//52
f 121//52 94//52 122//52
f 123//53 13//53 14//53
f 13//53 123//53 124//53
f 125//54 76//54 78//54
f 76//54 125//54 126//54
f 120//55 79//55 119//55
f 79//55 120//55 80//55
f 102//56 127//56 128//56
f 127//56 102//56 104//56
f 41//57 129//57 42//57
f 129//57 41//57 130//57
f 17//58 124//58 123//58
f 124//58 17//58 16//58
f 131//59 47//59 132//59
f 47//59 131//59 48//59
f 133//60 60//60 57//60
f 60//60 133//60 134//60
f 135//61 72//61 69//61
f 72//61 135//61 136//61
f 49//62 39//62 50//62
f 39//62 49//62 40//62
f 61//63 137//63 138//63
f 137//63 61//63 62//63
f 67//64 136//64 135//64
f 136//64 67//64 68//64
f 90//65 139//65 88//65
f 139//65 90//65 140//65
f 22//66 141//66 142//66
f 141//66 22//66 24//66
f 130//67 33//67 129//67
f 33//67 130//67 34//67
f 142//68 19//68 20//68
f 19//68 142//68 141//68
f 122//69 91//69 121//69
f 91//69 122//69 92//69
f 143//70 25//70 144//70
f 25//70 143//70 26//70
f 127//71 99//71 128//71
f 99//71 127//71 100//71
f 140//72 85//72 139//72
f 85//72 140//72 86//72
f 138//73 66//73 63//73
f 66//73 138//73 137//73
f 12//74 124//74 16//74
f 124//74 12//74 13//74
f 106//74 114//74 18//74
f 12//74 18//74 114//74
f 18//74 12//74 16//74
f 114//74 118//74 10//74
f 114//74 10//74 12//74
f 118//74 114//74 115//74
f 109//74 107//74 112//74
f 114//74 106//74 109//74
f 138//74 59//74 61//74
f 63//74 59//74 138//74
f 59//74 63//74 65//74
f 43//74 35//74 46//74
f 46//74 40//74 49//74
f 130//74 41//74 38//74
f 122//74 87//74 92//74
f 38//74 34//74 130//74
f 34//74 38//74 27//74
f 35//74 27//74 38//74
f 27//74 35//74 87//74
f 81//74 87//74 35//74
f 87//74 81//74 90//74
f 46//74 35//74 40//74
f 90//74 81//74 140//74
f 140//74 81//74 86//74
f 143//74 21//74 26//74
f 30//74 21//74 143//74
f 21//74 97//74 100//74
f 30//74 143//74 31//74
f 21//74 30//74 27//74
f 21//74 27//74 97//74
f 87//74 97//74 27//74
f 96//74 87//74 122//74
f 87//74 96//74 97//74
f 141//74 18//74 19//74
f 24//74 18//74 141//74
f 18//74 24//74 21//74
f 109//74 106//74 107//74
f 18//74 21//74 106//74
f 100//74 106//74 21//74
f 106//74 100//74 101//74
f 101//74 100//74 127//74
f 104//74 101//74 127//74
f 94//74 96//74 122//74
f 35//74 43//74 81//74
f 75//74 81//74 43//74
f 131//74 43//74 48//74
f 51//74 43//74 131//74
f 81//74 75//74 84//74
f 84//74 75//74 120//74
f 43//74 51//74 53//74
f 43//74 53//74 75//74
f 71//74 75//74 53//74
f 133//74 53//74 55//74
f 57//74 53//74 133//74
f 75//74 71//74 78//74
f 78//74 71//74 125//74
f 53//74 57//74 59//74
f 53//74 59//74 71//74
f 65//74 71//74 59//74
f 65//74 69//74 71//74
f 65//74 135//74 69//74
f 135//74 65//74 67//74
f 120//74 75//74 80//74
f 125//74 71//74 73//74
f 31//75 144//75 32//75
f 144//75 31//75 143//75
f 55//76 134//76 133//76
f 134//76 55//76 56//76
f 95//77 121//77 93//77
f 102//77 128//77 103//77
f 111//77 105//77 113//77
f 108//77 111//77 110//77
f 113//77 117//77 116//77
f 117//77 113//77 11//77
f 11//77 113//77 9//77
f 9//77 123//77 14//77
f 123//77 9//77 17//77
f 9//77 15//77 17//77
f 113//77 15//77 9//77
f 105//77 111//77 108//77
f 15//77 142//77 20//77
f 113//77 105//77 15//77
f 23//77 15//77 105//77
f 22//77 15//77 23//77
f 98//77 105//77 103//77
f 98//77 103//77 128//77
f 23//77 105//77 98//77
f 98//77 128//77 99//77
f 23//77 144//77 25//77
f 15//77 22//77 142//77
f 29//77 23//77 98//77
f 28//77 23//77 29//77
f 144//77 28//77 32//77
f 89//77 98//77 93//77
f 89//77 93//77 121//77
f 29//77 98//77 89//77
f 89//77 121//77 91//77
f 23//77 28//77 144//77
f 36//77 33//77 29//77
f 37//77 29//77 89//77
f 33//77 36//77 129//77
f 83//77 89//77 88//77
f 29//77 37//77 36//77
f 83//77 88//77 139//77
f 89//77 83//77 37//77
f 45//77 37//77 83//77
f 83//77 139//77 85//77
f 77//77 83//77 82//77
f 37//77 45//77 44//77
f 83//77 77//77 45//77
f 77//77 82//77 119//77
f 52//77 45//77 77//77
f 54//77 45//77 52//77
f 77//77 119//77 79//77
f 129//77 36//77 42//77
f 37//77 44//77 39//77
f 39//77 44//77 50//77
f 45//77 132//77 47//77
f 45//77 54//77 132//77
f 70//77 77//77 76//77
f 77//77 70//77 52//77
f 70//77 76//77 126//77
f 58//77 52//77 70//77
f 60//77 52//77 58//77
f 70//77 126//77 74//77
f 52//77 134//77 56//77
f 52//77 60//77 134//77
f 70//77 64//77 58//77
f 72//77 64//77 70//77
f 136//77 64//77 72//77
f 64//77 136//77 68//77
f 66//77 58//77 64//77
f 58//77 137//77 62//77
f 58//77 66//77 137//77
f 51//78 132//78 54//78
f 132//78 51//78 131//78
f 73//79 126//79 125//79
f 126//79 73//79 74//79
