# Blender 4.0.2
# www.blender.org
o Cube
v 1.000000 1.000000 -1.000000
v 1.000000 -1.000000 -1.000000
v 1.000000 1.000000 1.000000
v 1.000000 -1.000000 1.000000
v -1.000000 1.000000 -1.000000
v -1.000000 -1.000000 -1.000000
v -1.000000 1.000000 1.000000
v -1.000000 -1.000000 1.000000
vn -0.0000 1.0000 -0.0000
vn -0.0000 -0.0000 1.0000
vn -1.0000 -0.0000 -0.0000
vn -0.0000 -1.0000 -0.0000
vn 1.0000 -0.0000 -0.0000
vn -0.0000 -0.0000 -1.0000
vt 0.625000 0.500000
vt 0.875000 0.500000
vt 0.875000 0.750000
vt 0.625000 0.750000
vt 0.375000 0.750000
vt 0.625000 1.000000
vt 0.375000 1.000000
vt 0.375000 0.000000
vt 0.625000 0.000000
vt 0.625000 0.250000
vt 0.375000 0.250000
vt 0.125000 0.500000
vt 0.375000 0.500000
vt 0.125000 0.750000
s 0
f 1/1/1 5/2/1 7/3/1 3/4/1
f 4/5/2 3/4/2 7/6/2 8/7/2
f 8/8/3 7/9/3 5/10/3 6/11/3
f 6/12/4 2/13/4 4/5/4 8/14/4
f 2/13/5 1/1/5 3/4/5 4/5/5
f 6/11/6 5/10/6 1/1/6 2/13/6
o mechanicalPiston_box
v 9.600000 13.600000 4.800000
v 9.600000 16.000000 -14.400000
v 9.600000 13.600000 -14.400000
v 9.600000 16.000000 4.800000
v -9.600000 13.600000 -14.400000
v -9.600000 13.600000 4.800000
v -9.600000 16.000000 4.800000
v -9.600000 16.000000 -14.400000
v -9.600000 -13.600000 4.800000
v -9.600000 -16.000000 -14.400000
v -9.600000 -13.600000 -14.400000
v -9.600000 -16.000000 4.800000
v 9.600000 -16.000000 4.800000
v 9.600000 -13.600000 4.800000
v 9.600000 -13.600000 -14.400000
v 9.600000 -16.000000 -14.400000
v -12.800000 -16.000000 7.200000
v 12.800000 16.000000 7.200000
v -12.800000 16.000000 7.200000
v 12.800000 -16.000000 7.200000
v 12.800000 -16.000000 -16.000000
v 12.800000 16.000000 -16.000000
v -12.800000 16.000000 -16.000000
v -12.800000 -16.000000 -16.000000
vn -1.0000 -0.0000 -0.0000
vn -0.0000 1.0000 -0.0000
vn 1.0000 -0.0000 -0.0000
vn -0.0000 -0.0000 1.0000
vn -0.0000 -0.0000 -1.0000
vn -0.0000 -1.0000 -0.0000
s 0
f 9//7 10//7 11//7
f 10//7 9//7 12//7
f 13//8 9//8 11//8
f 9//8 13//8 14//8
f 15//9 13//9 16//9
f 13//9 15//9 14//9
f 13//10 10//10 16//10
f 10//10 13//10 11//10
f 9//11 15//11 12//11
f 15//11 9//11 14//11
f 17//9 18//9 19//9
f 18//9 17//9 20//9
f 21//11 17//11 22//11
f 17//11 21//11 20//11
f 17//12 23//12 22//12
f 23//12 17//12 19//12
f 18//10 23//10 19//10
f 23//10 18//10 24//10
f 21//7 23//7 24//7
f 23//7 21//7 22//7
f 25//10 26//10 27//10
f 26//10 25//10 28//10
f 26//9 29//9 30//9
f 29//9 26//9 28//9
f 12//8 30//8 10//8
f 30//8 16//8 10//8
f 16//8 31//8 15//8
f 31//8 16//8 30//8
f 30//8 12//8 26//8
f 15//8 26//8 12//8
f 15//8 27//8 26//8
f 27//8 15//8 31//8
f 28//12 21//12 29//12
f 28//12 20//12 21//12
f 32//12 20//12 25//12
f 25//12 20//12 28//12
f 24//12 29//12 21//12
f 18//12 29//12 24//12
f 18//12 32//12 29//12
f 20//12 32//12 18//12
f 25//7 31//7 32//7
f 31//7 25//7 27//7
f 29//11 31//11 30//11
f 31//11 29//11 32//11
