# Blender v3.4.1 OBJ File: ''
# www.blender.org
mtllib andesite_alloy.mtl
o Cube
v 1.000000 1.000000 -1.000000
v 1.000000 -1.000000 -1.000000
v 1.000000 1.000000 1.000000
v 1.000000 -1.000000 1.000000
v -1.000000 1.000000 -1.000000
v -1.000000 -1.000000 -1.000000
v -1.000000 1.000000 1.000000
v -1.000000 -1.000000 1.000000
vt 0.625000 0.500000
vt 0.875000 0.500000
vt 0.875000 0.750000
vt 0.625000 0.750000
vt 0.375000 0.750000
vt 0.625000 1.000000
vt 0.375000 1.000000
vt 0.375000 0.000000
vt 0.625000 0.000000
vt 0.625000 0.250000
vt 0.375000 0.250000
vt 0.125000 0.500000
vt 0.375000 0.500000
vt 0.125000 0.750000
vn 0.0000 1.0000 0.0000
vn 0.0000 0.0000 1.0000
vn -1.0000 0.0000 0.0000
vn 0.0000 -1.0000 0.0000
vn 1.0000 0.0000 0.0000
vn 0.0000 0.0000 -1.0000
usemtl Material
s off
f 1/1/1 5/2/1 7/3/1 3/4/1
f 4/5/2 3/4/2 7/6/2 8/7/2
f 8/8/3 7/9/3 5/10/3 6/11/3
f 6/12/4 2/13/4 4/5/4 8/14/4
f 2/13/5 1/1/5 3/4/5 4/5/5
f 6/11/6 5/10/6 1/1/6 2/13/6
o andesite_alloy
v 3.360118 2.665170 3.556189
v -3.744819 -3.637600 1.945301
v 3.437642 -3.637600 2.447547
v -3.822343 2.665170 3.053942
v -3.360118 -2.665170 -3.556189
v 3.744819 3.637600 -1.945301
v 3.822343 -2.665170 -3.053942
v -3.437642 3.637600 -2.447547
vn -0.0687 -0.1736 0.9824
vn 0.0687 0.1736 -0.9824
vn 0.0121 -0.9848 -0.1732
vn 0.9976 -0.0000 0.0698
vn -0.0121 0.9848 0.1732
vn -0.9976 -0.0000 -0.0698
usemtl None
s off
f 9//7 10//7 11//7
f 10//7 9//7 12//7
f 13//8 14//8 15//8
f 14//8 13//8 16//8
f 10//9 15//9 11//9
f 15//9 10//9 13//9
f 9//10 15//10 14//10
f 15//10 9//10 11//10
f 14//11 12//11 9//11
f 12//11 14//11 16//11
f 13//12 12//12 16//12
f 12//12 13//12 10//12
